<svg version="1.0" xmlns="http://www.w3.org/2000/svg"
 width="225.000000pt" height="225.000000pt" viewBox="0 0 225.000000 225.000000"
 preserveAspectRatio="xMidYMid meet">

<g transform="translate(0.000000,225.000000) scale(0.100000,-0.100000)"
fill="#000000" stroke="none">
<path d="M1345 2235 c-168 -37 -804 -219 -849 -243 -70 -38 -165 -135 -204
-209 -41 -78 -72 -198 -72 -277 0 -71 21 -166 52 -239 13 -29 143 -212 297
-417 568 -755 561 -747 676 -801 88 -42 185 -56 273 -40 126 22 287 117 280
165 -5 33 -32 30 -85 -10 -26 -20 -73 -49 -103 -63 -49 -23 -67 -26 -165 -26
-98 0 -116 3 -166 26 -105 50 -91 33 -616 729 -339 450 -354 475 -372 605 -10
72 -1 170 24 244 37 112 140 228 240 271 23 10 218 66 434 125 380 104 395
107 479 103 75 -2 97 -8 155 -36 155 -76 247 -222 263 -413 l7 -79 -92 0 -91
0 0 53 c0 138 -90 250 -217 272 -31 5 -70 -1 -160 -25 -227 -61 -223 -59 -223
-85 0 -12 7 -25 14 -28 8 -3 79 12 158 33 199 55 235 53 306 -13 57 -54 82
-186 42 -222 -14 -12 -20 -31 -20 -57 0 -25 -8 -50 -20 -65 -18 -23 -20 -41
-20 -187 0 -144 2 -164 20 -186 11 -15 20 -41 20 -63 0 -25 7 -43 20 -54 19
-17 20 -30 20 -243 0 -133 -5 -241 -11 -265 -29 -103 -108 -165 -211 -165 -71
0 -118 31 -190 125 -297 388 -667 887 -678 915 -9 20 -15 64 -14 101 0 53 6
75 27 112 43 73 81 95 240 139 78 22 148 45 156 53 19 19 7 45 -21 45 -52 -1
-302 -79 -342 -107 -49 -34 -101 -109 -117 -166 -16 -59 -6 -166 20 -218 12
-24 181 -255 376 -514 371 -491 398 -522 488 -546 115 -31 257 42 310 160 17
36 22 72 25 164 l4 117 90 0 91 0 -6 -143 c-3 -93 -11 -162 -23 -200 -16 -53
-16 -59 -1 -74 23 -23 43 -4 64 61 14 42 17 104 21 341 3 270 5 291 23 308 13
12 19 31 19 58 0 26 7 47 20 61 18 20 20 36 20 184 0 146 -2 164 -20 187 -12
15 -20 40 -20 65 0 25 -6 45 -19 56 -14 13 -19 36 -24 104 -13 203 -122 374
-289 456 -113 55 -198 67 -313 41z m583 -667 c3 -16 -8 -18 -127 -18 -125 0
-131 1 -131 20 0 20 5 20 127 18 112 -3 128 -5 131 -20z m37 -238 l0 -145
-167 -3 -168 -2 0 143 c0 79 3 147 7 151 4 3 79 5 167 4 l161 -3 0 -145z m-35
-240 c0 -19 -7 -20 -130 -20 -123 0 -130 1 -130 20 0 19 7 20 130 20 123 0
130 -1 130 -20z m-40 -185 l0 -105 -90 0 -90 0 0 105 0 105 90 0 90 0 0 -105z"/>
<path d="M1788 942 c-10 -2 -21 -15 -24 -29 -9 -33 16 -58 49 -49 58 14 33 91
-25 78z"/>
</g>
</svg>
